<svg width="90" height="20" xmlns="http://www.w3.org/2000/svg">
 <metadata id="metadata5">image/svg+xml</metadata>

 <g>
  <title>background</title>
  <rect x="-1" y="-1" width="92" height="22" id="canvas_background" fill="none"/>
 </g>
 <g>
  <title>Layer 1</title>
  <g id="layer1">
   <g transform="matrix(1.18083, 0, 0, 1.18077, -56.0802, 213.502)" id="layer1-2">
    <path d="m58.9725,-163.88358l-8.97313,0.00026c-1.38677,0 -2.5047,-1.10703 -2.5047,-2.4938l-0.0024,-1.8044l3.44015,-1.46026l-0.004,0.83705c-0.00001,0.82339 0.66969,1.48604 1.49308,1.48604l5.09076,-0.0052l1.46024,3.44031zm2.01141,-11.17443l-0.00027,-0.8262c0,-0.82339 -0.66208,-1.48927 -1.48547,-1.48927l-5.10161,0.00079l-1.46025,-3.44014l8.98074,-0.0036c1.38677,0 2.51116,1.12225 2.51116,2.50902l-0.004,1.78918l-3.4403,1.46022z" id="rect7870-3-8-7-1" stroke-width="0.06173" fill-rule="evenodd" fill="#9fa8da"/>
    <path d="m62.89655,-164.07686c-0.29983,0.12584 -0.62893,0.19855 -0.97562,0.19856l-1.7968,-0.0008l-1.46025,-3.44015l0.83381,-0.0036c0.82339,0.00001 1.4925,-0.65448 1.4925,-1.47786l-0.0084,-5.09837l3.44776,-1.46349l-0.004,8.98397c-0.00001,1.04008 -0.6294,1.92451 -1.52902,2.30177l0.00002,-0.00003zm-15.40387,-5.24619l0.004,-8.98397c0,-1.38677 1.11464,-2.50793 2.50141,-2.50793l1.78918,0.004l1.46026,3.44014l-0.82621,0.00027c-0.82339,0 -1.48927,0.66208 -1.48927,1.48547l0.0008,5.10161l-3.44017,1.46041z" id="rect7870-3-8-7" stroke-width="0.06173" fill-rule="evenodd" fill="#3f51b5"/>
    <rect id="rect7870-3-8-4-5" width="7.9375" height="7.9375" x="51.99043" y="-66.21444" rx="1.17337" ry="1.17337" transform="translate(0, -234.593) scale(1, -1)" stroke-width="0.06173" fill-rule="evenodd" fill="#283593"/>
   </g>
  </g>
  <text fill="#000000" stroke="#000" stroke-width="0" x="28.1169" y="6.1039" id="svg_1" font-size="24" font-family="Helvetica, Arial, sans-serif" text-anchor="start" xml:space="preserve" transform="matrix(0.577364, 0, 0, 0.577364, 11.8832, -4.98407)">Yenoma</text>
  <text fill="#283593" stroke-width="0" x="22.19463" y="43.43582" id="svg_2" font-size="24" font-family="Helvetica, Arial, sans-serif" text-anchor="start" xml:space="preserve" stroke-dasharray="2,2" transform="matrix(0.600638, 0, 0, 0.600638, 12.7687, -10.6348)" font-weight="bold">YENOMA</text>
 </g>
</svg>