<?xml version="1.0" encoding="UTF-8" standalone="no"?>
<!-- Created with Inkscape (http://www.inkscape.org/) -->

<svg
   xmlns:dc="http://purl.org/dc/elements/1.1/"
   xmlns:cc="http://creativecommons.org/ns#"
   xmlns:rdf="http://www.w3.org/1999/02/22-rdf-syntax-ns#"
   xmlns:svg="http://www.w3.org/2000/svg"
   xmlns="http://www.w3.org/2000/svg"
   xmlns:xlink="http://www.w3.org/1999/xlink"
   xmlns:sodipodi="http://sodipodi.sourceforge.net/DTD/sodipodi-0.dtd"
   xmlns:inkscape="http://www.inkscape.org/namespaces/inkscape"
   width="50mm"
   height="12mm"
   viewBox="0 0 50 12"
   version="1.1"
   id="svg8"
   inkscape:version="0.92.4 (5da689c313, 2019-01-14)"
   sodipodi:docname="logo_ct.svg"
   inkscape:export-filename="C:\Users\ORE\Desktop\Rastergrafik.png"
   inkscape:export-xdpi="101.6"
   inkscape:export-ydpi="101.6">
  <defs
     id="defs2">
    <linearGradient
       y2="295.26013"
       x2="589.70502"
       y1="180.09897"
       x1="589.70502"
       gradientTransform="matrix(1.1100806,0,0,1.1114859,-560.44872,-164.17748)"
       gradientUnits="userSpaceOnUse"
       id="linearGradient45259"
       xlink:href="#SVGID_3_-9-1" />
    <radialGradient
       gradientTransform="matrix(0.9647203,0,0,0.98009214,128.66947,-26.958136)"
       id="SVGID_3_-9-1"
       cx="344"
       cy="243.0439"
       r="83.522301"
       gradientUnits="userSpaceOnUse">
      <stop
         offset="0"
         style="stop-color:#F0F0F0"
         id="stop3383-10-0" />
      <stop
         offset="1"
         style="stop-color:#D4D1D2"
         id="stop3385-4-00" />
    </radialGradient>
    <linearGradient
       y2="295.26013"
       x2="589.70502"
       y1="180.09897"
       x1="589.70502"
       gradientTransform="matrix(1.1100806,0,0,1.1114859,-418.92808,-164.66131)"
       gradientUnits="userSpaceOnUse"
       id="linearGradient45259-6"
       xlink:href="#SVGID_3_-9-1-6" />
    <radialGradient
       gradientTransform="matrix(0.9647203,0,0,0.98009214,128.66947,-26.958136)"
       id="SVGID_3_-9-1-6"
       cx="344"
       cy="243.0439"
       r="83.522301"
       gradientUnits="userSpaceOnUse">
      <stop
         offset="0"
         style="stop-color:#F0F0F0"
         id="stop3383-10-0-4" />
      <stop
         offset="1"
         style="stop-color:#D4D1D2"
         id="stop3385-4-00-2" />
    </radialGradient>
    <radialGradient
       gradientTransform="matrix(0.9647203,0,0,0.98009214,128.66947,-26.958136)"
       id="SVGID_3_-9-1-8"
       cx="344"
       cy="243.0439"
       r="83.522301"
       gradientUnits="userSpaceOnUse">
      <stop
         offset="0"
         style="stop-color:#F0F0F0"
         id="stop3383-10-0-2" />
      <stop
         offset="1"
         style="stop-color:#D4D1D2"
         id="stop3385-4-00-6" />
    </radialGradient>
    <radialGradient
       gradientTransform="matrix(0.9647203,0,0,0.98009214,128.66947,-26.958136)"
       id="SVGID_3_-9-1-6-3"
       cx="344"
       cy="243.0439"
       r="83.522301"
       gradientUnits="userSpaceOnUse">
      <stop
         offset="0"
         style="stop-color:#F0F0F0"
         id="stop3383-10-0-4-7" />
      <stop
         offset="1"
         style="stop-color:#D4D1D2"
         id="stop3385-4-00-2-0" />
    </radialGradient>
    <radialGradient
       gradientTransform="matrix(0.9647203,0,0,0.98009214,128.66947,-26.958136)"
       id="SVGID_3_-9-1-86"
       cx="344"
       cy="243.0439"
       r="83.522301"
       gradientUnits="userSpaceOnUse">
      <stop
         offset="0"
         style="stop-color:#F0F0F0"
         id="stop3383-10-0-9" />
      <stop
         offset="1"
         style="stop-color:#D4D1D2"
         id="stop3385-4-00-24" />
    </radialGradient>
    <radialGradient
       gradientTransform="matrix(0.9647203,0,0,0.98009214,128.66947,-26.958136)"
       id="SVGID_3_-9-1-6-2"
       cx="344"
       cy="243.0439"
       r="83.522301"
       gradientUnits="userSpaceOnUse">
      <stop
         offset="0"
         style="stop-color:#F0F0F0"
         id="stop3383-10-0-4-8" />
      <stop
         offset="1"
         style="stop-color:#D4D1D2"
         id="stop3385-4-00-2-4" />
    </radialGradient>
  </defs>
  <sodipodi:namedview
     id="base"
     pagecolor="#ffffff"
     bordercolor="#666666"
     borderopacity="1.0"
     inkscape:pageopacity="0.0"
     inkscape:pageshadow="2"
     inkscape:zoom="3.959798"
     inkscape:cx="82.004718"
     inkscape:cy="25.697276"
     inkscape:document-units="mm"
     inkscape:current-layer="layer1"
     showgrid="false"
     inkscape:window-width="1680"
     inkscape:window-height="987"
     inkscape:window-x="-8"
     inkscape:window-y="-8"
     inkscape:window-maximized="1" />
  <metadata
     id="metadata5">
    <rdf:RDF>
      <cc:Work
         rdf:about="">
        <dc:format>image/svg+xml</dc:format>
        <dc:type
           rdf:resource="http://purl.org/dc/dcmitype/StillImage" />
        <dc:title></dc:title>
      </cc:Work>
    </rdf:RDF>
  </metadata>
  <g
     inkscape:label="Ebene 1"
     inkscape:groupmode="layer"
     id="layer1"
     transform="translate(0,-285)">
    <g
       id="layer1-5"
       transform="matrix(0.60000002,0,0,0.59999998,4.5e-5,118.80001)">
      <g
         id="layer1-2"
         transform="matrix(1.1808271,0,0,1.180768,-56.080157,213.50226)">
        <path
           id="rect7870-3-8-7-1"
           d="m 58.972501,70.709499 -8.973132,2.64e-4 c -1.386766,0 -2.504702,-1.107032 -2.504701,-2.493798 l -0.0024,-1.804405 3.440148,-1.460257 -0.004,0.837044 c -2e-6,0.823391 0.669692,1.486043 1.493084,1.48604 l 5.090763,-0.0052 z m 2.011407,-11.174428 -2.64e-4,-0.826201 c 0,-0.823392 -0.662086,-1.489271 -1.485474,-1.489271 l -5.101606,7.93e-4 -1.460257,-3.440146 8.980744,-0.0036 c 1.386764,0 2.511161,1.122257 2.511163,2.509022 l -0.004,1.789184 z"
           style="color:#000000;display:inline;overflow:visible;visibility:visible;fill:#9fa8da;fill-opacity:1;fill-rule:evenodd;stroke:none;stroke-width:0.06172764;marker:none;enable-background:accumulate"
           inkscape:connector-curvature="0" />
        <path
           id="rect7870-3-8-7"
           d="m 62.896555,70.516221 c -0.299839,0.125836 -0.628936,0.198551 -0.975627,0.198554 l -1.796796,-7.94e-4 -1.460254,-3.440147 0.833813,-0.0036 c 0.823391,3e-6 1.492499,-0.654481 1.492501,-1.477862 l -0.0084,-5.098375 3.447756,-1.463484 -0.004,8.983972 c -3e-6,1.040074 -0.629393,1.924507 -1.529014,2.301766 z m -15.403876,-5.24619 0.004,-8.983972 c -2e-6,-1.386766 1.114644,-2.507933 2.501409,-2.507933 l 1.789184,0.004 1.460256,3.440147 -0.826204,2.64e-4 c -0.823391,0 -1.48927,0.662083 -1.48927,1.485474 l 7.93e-4,5.101604 z"
           style="color:#000000;display:inline;overflow:visible;visibility:visible;fill:#3f51b5;fill-opacity:1;fill-rule:evenodd;stroke:none;stroke-width:0.06172764;marker:none;enable-background:accumulate"
           inkscape:connector-curvature="0" />
        <rect
           transform="scale(1,-1)"
           ry="1.1733695"
           rx="1.1733695"
           y="-66.214439"
           x="51.990429"
           height="7.9375"
           width="7.9375"
           id="rect7870-3-8-4-5"
           style="color:#000000;display:inline;overflow:visible;visibility:visible;fill:#283593;fill-opacity:1;fill-rule:evenodd;stroke:none;stroke-width:0.06172764;marker:none;enable-background:accumulate" />
      </g>
    </g>
    <path
       inkscape:connector-curvature="0"
       id="path938"
       style="font-style:normal;font-variant:normal;font-weight:300;font-stretch:normal;font-size:5.64444447px;line-height:1.25;font-family:Roboto;-inkscape-font-specification:'Roboto Light';letter-spacing:0px;word-spacing:0px;fill:#000000;fill-opacity:1;stroke:none;stroke-width:0.22214389"
       d="m 18.49123,290.0229 0.87092,-2.50803 h 0.355534 l -1.262283,3.45888 q -0.03858,0.10197 -0.09922,0.22875 -0.05788,0.12678 -0.15434,0.23703 -0.09371,0.11024 -0.237023,0.18465 -0.14056,0.0772 -0.344509,0.0772 -0.02756,0 -0.06339,-0.006 -0.03583,-0.003 -0.07166,-0.008 -0.03583,-0.006 -0.0689,-0.0138 -0.03032,-0.006 -0.04961,-0.011 l -0.0028,-0.27285 q 0.03307,0.006 0.08819,0.011 0.05788,0.006 0.08268,0.006 0.132292,0 0.234267,-0.0358 0.101975,-0.0331 0.176389,-0.10197 0.07717,-0.0661 0.135047,-0.16812 0.05788,-0.10198 0.104731,-0.23427 l 0.143316,-0.39412 -1.124479,-2.95727 h 0.361046 z" />
    <path
       inkscape:connector-curvature="0"
       id="path940"
       style="font-style:normal;font-variant:normal;font-weight:300;font-stretch:normal;font-size:5.64444447px;line-height:1.25;font-family:Roboto;-inkscape-font-specification:'Roboto Light';letter-spacing:0px;word-spacing:0px;fill:#000000;fill-opacity:1;stroke:none;stroke-width:0.22214389"
       d="m 21.346525,290.55207 q -0.292144,0 -0.537435,-0.10749 -0.245291,-0.11024 -0.424436,-0.30317 -0.176389,-0.19568 -0.275607,-0.46302 -0.09922,-0.26734 -0.09922,-0.58704 v -0.11851 q 0,-0.34451 0.101975,-0.62288 0.104731,-0.28112 0.281119,-0.4768 0.176389,-0.19843 0.405144,-0.30592 0.23151,-0.10749 0.487825,-0.10749 0.283876,0 0.504362,0.10198 0.220486,0.10197 0.369314,0.28387 0.151585,0.1819 0.228755,0.43271 0.07717,0.2508 0.07717,0.54846 v 0.20119 H 20.3378 v 0.0634 q 0,0.24529 0.07441,0.46302 0.07441,0.21497 0.209462,0.37483 0.135048,0.15985 0.322461,0.25356 0.187413,0.091 0.416167,0.091 0.264584,0 0.465777,-0.0965 0.20395,-0.0965 0.369314,-0.30868 l 0.206706,0.1571 q -0.07441,0.10749 -0.173633,0.20395 -0.09646,0.0965 -0.225998,0.16812 -0.129536,0.0717 -0.292144,0.113 -0.162609,0.0413 -0.363802,0.0413 z m -0.06063,-2.8112 q -0.187413,0 -0.347265,0.0717 -0.159853,0.0717 -0.283876,0.20395 -0.121268,0.13229 -0.201194,0.3197 -0.07717,0.18466 -0.104731,0.41066 h 1.788694 v -0.0358 q -0.0055,-0.18741 -0.06063,-0.36105 -0.05512,-0.17638 -0.162608,-0.31143 -0.104731,-0.13505 -0.261828,-0.21498 -0.157096,-0.0827 -0.366558,-0.0827 z" />
    <path
       inkscape:connector-curvature="0"
       id="path942"
       style="font-style:normal;font-variant:normal;font-weight:300;font-stretch:normal;font-size:5.64444447px;line-height:1.25;font-family:Roboto;-inkscape-font-specification:'Roboto Light';letter-spacing:0px;word-spacing:0px;fill:#000000;fill-opacity:1;stroke:none;stroke-width:0.22214389"
       d="m 23.427362,287.51487 0.01103,0.50988 q 0.07717,-0.12678 0.176389,-0.23151 0.101974,-0.10473 0.225998,-0.17915 0.124023,-0.0744 0.267339,-0.113 0.143316,-0.0413 0.303169,-0.0413 0.223242,0 0.399631,0.0606 0.176389,0.0606 0.297656,0.19292 0.124023,0.13229 0.187413,0.34175 0.06615,0.20671 0.06615,0.50161 v 1.94028 h -0.327973 v -1.94304 q 0,-0.23151 -0.04961,-0.38585 -0.04961,-0.15434 -0.14056,-0.24804 -0.09095,-0.0937 -0.223242,-0.13229 -0.129536,-0.0414 -0.289388,-0.0414 -0.176389,0 -0.319705,0.0606 -0.143316,0.0579 -0.253559,0.15709 -0.110243,0.0992 -0.19017,0.22876 -0.07993,0.12678 -0.126779,0.26183 v 2.04225 H 23.11317 v -2.98208 z" />
    <path
       inkscape:connector-curvature="0"
       id="path944"
       style="font-style:normal;font-variant:normal;font-weight:300;font-stretch:normal;font-size:5.64444447px;line-height:1.25;font-family:Roboto;-inkscape-font-specification:'Roboto Light';letter-spacing:0px;word-spacing:0px;fill:#000000;fill-opacity:1;stroke:none;stroke-width:0.22214389"
       d="m 26.029099,288.96181 q 0,-0.32521 0.09371,-0.60082 0.09646,-0.27561 0.270096,-0.47405 0.173632,-0.20119 0.418923,-0.31419 0.245291,-0.113 0.545703,-0.113 0.305925,0 0.551216,0.113 0.248046,0.113 0.421679,0.31419 0.173633,0.19844 0.26734,0.47405 0.09371,0.27561 0.09371,0.60082 v 0.0909 q 0,0.32522 -0.09371,0.60083 -0.09371,0.27561 -0.26734,0.4768 -0.173633,0.19844 -0.418923,0.31144 -0.245291,0.11024 -0.54846,0.11024 -0.303168,0 -0.548459,-0.11024 -0.245291,-0.113 -0.421679,-0.31144 -0.173633,-0.20119 -0.270096,-0.4768 -0.09371,-0.27561 -0.09371,-0.60083 z m 0.330729,0.0909 q 0,0.2453 0.06615,0.46854 0.06614,0.22048 0.192925,0.3886 0.126779,0.16537 0.314193,0.26459 0.187413,0.0992 0.429947,0.0992 0.242535,0 0.427192,-0.0992 0.187414,-0.0992 0.314193,-0.26459 0.12678,-0.16812 0.192925,-0.3886 0.06615,-0.22324 0.06615,-0.46854 v -0.0909 q 0,-0.23977 -0.06615,-0.46026 -0.06614,-0.22324 -0.192925,-0.39136 -0.126779,-0.16812 -0.316949,-0.26734 -0.187413,-0.10198 -0.429948,-0.10198 -0.239778,0 -0.427192,0.10198 -0.184657,0.0992 -0.311436,0.26734 -0.12678,0.16812 -0.192925,0.39136 -0.06615,0.22049 -0.06615,0.46026 z" />
    <path
       inkscape:connector-curvature="0"
       id="path946"
       style="font-style:normal;font-variant:normal;font-weight:300;font-stretch:normal;font-size:5.64444447px;line-height:1.25;font-family:Roboto;-inkscape-font-specification:'Roboto Light';letter-spacing:0px;word-spacing:0px;fill:#000000;fill-opacity:1;stroke:none;stroke-width:0.22214389"
       d="m 29.675388,287.51487 0.01102,0.48507 q 0.07441,-0.12126 0.170877,-0.22048 0.09922,-0.10198 0.220486,-0.17088 0.121267,-0.0717 0.264583,-0.11024 0.143316,-0.0386 0.308681,-0.0386 0.327973,0 0.562239,0.13781 0.234267,0.1378 0.333485,0.44097 0.07166,-0.12403 0.170877,-0.22876 0.101975,-0.10748 0.228755,-0.18465 0.129535,-0.0772 0.283875,-0.12127 0.154341,-0.0441 0.333486,-0.0441 0.23151,0 0.413411,0.0634 0.181901,0.0606 0.305925,0.19568 0.126779,0.13229 0.192925,0.339 0.06615,0.20671 0.06615,0.49609 v 1.94304 h -0.330729 v -1.94579 q 0,-0.23702 -0.05237,-0.39136 -0.05236,-0.1571 -0.148828,-0.24805 -0.09646,-0.0937 -0.23151,-0.12954 -0.132292,-0.0358 -0.292144,-0.0358 -0.209462,0.003 -0.366559,0.0772 -0.157096,0.0717 -0.267339,0.18466 -0.107487,0.11024 -0.168121,0.24805 -0.06063,0.1378 -0.07166,0.26734 v 1.97335 H 31.28218 v -1.9706 q 0,-0.22324 -0.05237,-0.37207 -0.05237,-0.14882 -0.148828,-0.23978 -0.09646,-0.0909 -0.231511,-0.12953 -0.132292,-0.0386 -0.2949,-0.0386 -0.187413,0 -0.330729,0.0606 -0.143316,0.0579 -0.250803,0.15709 -0.104731,0.0992 -0.173633,0.226 -0.0689,0.12678 -0.110243,0.26183 v 2.04501 h -0.330729 v -2.98208 z" />
    <path
       inkscape:connector-curvature="0"
       id="path948"
       style="font-style:normal;font-variant:normal;font-weight:300;font-stretch:normal;font-size:5.64444447px;line-height:1.25;font-family:Roboto;-inkscape-font-specification:'Roboto Light';letter-spacing:0px;word-spacing:0px;fill:#000000;fill-opacity:1;stroke:none;stroke-width:0.22214389"
       d="m 36.26241,290.49695 q -0.02756,-0.0772 -0.0441,-0.18741 -0.01378,-0.113 -0.01929,-0.22876 -0.07441,0.0965 -0.176389,0.1819 -0.101975,0.0854 -0.228754,0.14883 -0.12678,0.0634 -0.278364,0.10197 -0.151584,0.0386 -0.327973,0.0386 -0.21773,0 -0.396875,-0.0634 -0.176389,-0.0634 -0.303168,-0.17639 -0.124024,-0.11575 -0.192926,-0.27009 -0.0689,-0.15434 -0.0689,-0.33625 0,-0.21773 0.09371,-0.39136 0.09371,-0.17639 0.270096,-0.29765 0.176388,-0.12403 0.427191,-0.18742 0.253559,-0.0661 0.567752,-0.0661 h 0.611849 v -0.339 q 0,-0.31971 -0.198437,-0.50161 -0.195682,-0.18465 -0.573264,-0.18465 -0.173633,0 -0.319705,0.0469 -0.146072,0.0469 -0.253559,0.12953 -0.104731,0.0827 -0.165365,0.19293 -0.05788,0.10749 -0.05788,0.23151 l -0.33073,-0.003 q 0,-0.16812 0.08268,-0.32521 0.08268,-0.1571 0.23151,-0.27837 0.151584,-0.12402 0.361046,-0.19843 0.212218,-0.0744 0.468533,-0.0744 0.237023,0 0.43546,0.0606 0.201194,0.0606 0.34451,0.1819 0.143316,0.12126 0.223242,0.30317 0.07993,0.1819 0.07993,0.42443 v 1.44418 q 0,0.0772 0.0055,0.15986 0.0055,0.0827 0.01654,0.15985 0.01378,0.0772 0.03032,0.14883 0.01654,0.0689 0.03859,0.12127 v 0.0331 z m -1.036285,-0.23702 q 0.179145,0 0.330729,-0.0441 0.154341,-0.0469 0.278364,-0.12678 0.124023,-0.0799 0.214974,-0.18466 0.09095,-0.10749 0.146072,-0.23151 v -0.65594 h -0.564996 q -0.253559,0 -0.454752,0.0469 -0.198438,0.0441 -0.336242,0.12953 -0.137803,0.0854 -0.212217,0.20947 -0.07166,0.12126 -0.07166,0.2756 0,0.12127 0.04685,0.22876 0.04685,0.10473 0.132292,0.18466 0.08819,0.0772 0.212217,0.12402 0.124024,0.0441 0.278364,0.0441 z" />
    <path
       inkscape:connector-curvature="0"
       id="path957"
       style="font-style:normal;font-variant:normal;font-weight:300;font-stretch:normal;font-size:3.52777767px;line-height:1.25;font-family:Roboto;-inkscape-font-specification:'Roboto Light';letter-spacing:0px;word-spacing:0px;fill:#666666;fill-opacity:1;stroke:none;stroke-width:0.13872395"
       d="m 18.640975,294.37212 q 0,-0.0568 -0.02067,-0.11368 -0.01895,-0.0568 -0.07407,-0.1068 -0.0534,-0.0517 -0.151585,-0.0947 -0.09646,-0.0448 -0.251492,-0.0775 -0.155029,-0.0327 -0.27733,-0.0758 -0.120578,-0.0431 -0.204983,-0.10335 -0.08268,-0.062 -0.125746,-0.14642 -0.04306,-0.0844 -0.04306,-0.19809 0,-0.10335 0.04479,-0.19637 0.04651,-0.093 0.130913,-0.16192 0.08613,-0.0689 0.206706,-0.10852 0.122301,-0.0413 0.273885,-0.0413 0.161919,0 0.289388,0.0431 0.129191,0.0413 0.217041,0.11713 0.08957,0.0741 0.136081,0.1757 0.04651,0.10163 0.04651,0.22049 h -0.206706 q 0,-0.0724 -0.03273,-0.14125 -0.03101,-0.0689 -0.09302,-0.12058 -0.06029,-0.0534 -0.151584,-0.0861 -0.08957,-0.0327 -0.204983,-0.0327 -0.120578,0 -0.206706,0.0293 -0.08441,0.0293 -0.139526,0.0758 -0.0534,0.0465 -0.07924,0.10508 -0.02412,0.0568 -0.02412,0.11541 0,0.062 0.01895,0.11369 0.01895,0.05 0.07235,0.0947 0.05512,0.0431 0.151584,0.081 0.09819,0.0362 0.254937,0.0723 0.16881,0.0396 0.291111,0.0879 0.122301,0.0482 0.201538,0.11541 0.08096,0.0655 0.118856,0.15159 0.03962,0.0844 0.03962,0.19637 0,0.11541 -0.04823,0.21187 -0.04823,0.0947 -0.137804,0.16364 -0.08957,0.0672 -0.217041,0.10508 -0.127468,0.0379 -0.28422,0.0379 -0.177423,0 -0.313504,-0.0448 -0.136081,-0.0465 -0.229099,-0.12402 -0.09302,-0.0775 -0.141249,-0.17743 -0.04651,-0.10163 -0.04651,-0.21015 h 0.206705 q 0.0069,0.11025 0.05684,0.18432 0.04995,0.0723 0.124024,0.11713 0.07407,0.0431 0.163642,0.062 0.0913,0.019 0.179145,0.019 0.117133,0 0.206706,-0.0276 0.08957,-0.0276 0.149861,-0.0741 0.06201,-0.0465 0.09302,-0.1068 0.03101,-0.0603 0.03101,-0.12575 z" />
    <path
       inkscape:connector-curvature="0"
       id="path959"
       style="font-style:normal;font-variant:normal;font-weight:300;font-stretch:normal;font-size:3.52777767px;line-height:1.25;font-family:Roboto;-inkscape-font-specification:'Roboto Light';letter-spacing:0px;word-spacing:0px;fill:#666666;fill-opacity:1;stroke:none;stroke-width:0.13872395"
       d="m 20.508216,294.60984 q -0.08785,0.12746 -0.234266,0.19981 -0.144694,0.0706 -0.360013,0.0706 -0.137803,0 -0.249769,-0.0379 -0.111966,-0.0396 -0.192925,-0.12402 -0.08096,-0.0844 -0.125746,-0.21704 -0.04306,-0.13436 -0.04306,-0.32557 V 292.982 h 0.204983 v 1.19717 q 0,0.14986 0.03445,0.24977 0.03445,0.0999 0.09302,0.1602 0.05857,0.0603 0.136081,0.0861 0.07924,0.0258 0.167087,0.0258 0.124023,0 0.218764,-0.0276 0.09474,-0.0276 0.163642,-0.0775 0.0689,-0.05 0.113688,-0.11714 0.04479,-0.0672 0.07062,-0.14814 v -1.34875 h 0.206706 v 1.8638 h -0.199816 z" />
    <path
       inkscape:connector-curvature="0"
       id="path961"
       style="font-style:normal;font-variant:normal;font-weight:300;font-stretch:normal;font-size:3.52777767px;line-height:1.25;font-family:Roboto;-inkscape-font-specification:'Roboto Light';letter-spacing:0px;word-spacing:0px;fill:#666666;fill-opacity:1;stroke:none;stroke-width:0.13872395"
       d="m 22.106741,293.15773 q -0.06546,-0.0121 -0.139527,-0.0121 -0.105075,0 -0.18948,0.031 -0.08441,0.031 -0.149862,0.0879 -0.06373,0.0551 -0.10852,0.13263 -0.04306,0.0758 -0.0689,0.16881 v 1.27986 h -0.204983 v -1.8638 h 0.201538 l 0.0034,0.29628 q 0.07579,-0.15331 0.204983,-0.24116 0.130914,-0.0896 0.320394,-0.0896 0.0379,0 0.07752,0.007 0.03962,0.007 0.05857,0.0155 z" />
    <path
       inkscape:connector-curvature="0"
       id="path963"
       style="font-style:normal;font-variant:normal;font-weight:300;font-stretch:normal;font-size:3.52777767px;line-height:1.25;font-family:Roboto;-inkscape-font-specification:'Roboto Light';letter-spacing:0px;word-spacing:0px;fill:#666666;fill-opacity:1;stroke:none;stroke-width:0.13872395"
       d="m 23.045529,294.5616 0.566718,-1.57957 h 0.211873 l -0.695909,1.8638 h -0.167087 l -0.699354,-1.8638 h 0.211873 z" />
    <path
       inkscape:connector-curvature="0"
       id="path965"
       style="font-style:normal;font-variant:normal;font-weight:300;font-stretch:normal;font-size:3.52777767px;line-height:1.25;font-family:Roboto;-inkscape-font-specification:'Roboto Light';letter-spacing:0px;word-spacing:0px;fill:#666666;fill-opacity:1;stroke:none;stroke-width:0.13872395"
       d="m 24.861094,294.88028 q -0.18259,0 -0.335897,-0.0672 -0.153306,-0.0689 -0.265272,-0.18948 -0.110243,-0.1223 -0.172255,-0.28939 -0.06201,-0.16709 -0.06201,-0.3669 v -0.0741 q 0,-0.21532 0.06373,-0.3893 0.06546,-0.1757 0.1757,-0.298 0.110243,-0.12402 0.253214,-0.1912 0.144694,-0.0672 0.304891,-0.0672 0.177423,0 0.315226,0.0637 0.137804,0.0637 0.230822,0.17742 0.09474,0.11369 0.142971,0.27044 0.04823,0.15676 0.04823,0.34279 v 0.12575 h -1.329807 v 0.0396 q 0,0.1533 0.04651,0.28938 0.04651,0.13436 0.130913,0.23427 0.08441,0.0999 0.201538,0.15847 0.117134,0.0568 0.260105,0.0568 0.165365,0 0.291111,-0.0603 0.127468,-0.0603 0.230821,-0.19293 l 0.129191,0.0982 q -0.04651,0.0672 -0.108521,0.12747 -0.06029,0.0603 -0.141248,0.10507 -0.08096,0.0448 -0.18259,0.0706 -0.101631,0.0258 -0.227377,0.0258 z m -0.0379,-1.757 q -0.117133,0 -0.217041,0.0448 -0.09991,0.0448 -0.177422,0.12747 -0.07579,0.0827 -0.125746,0.19982 -0.04823,0.11541 -0.06546,0.25666 h 1.117933 v -0.0224 q -0.0034,-0.11713 -0.0379,-0.22565 -0.03445,-0.11024 -0.10163,-0.19465 -0.06546,-0.0844 -0.163642,-0.13436 -0.09819,-0.0517 -0.229099,-0.0517 z" />
    <path
       inkscape:connector-curvature="0"
       id="path967"
       style="font-style:normal;font-variant:normal;font-weight:300;font-stretch:normal;font-size:3.52777767px;line-height:1.25;font-family:Roboto;-inkscape-font-specification:'Roboto Light';letter-spacing:0px;word-spacing:0px;fill:#666666;fill-opacity:1;stroke:none;stroke-width:0.13872395"
       d="m 26.535411,294.54955 0.544325,-1.56752 h 0.222208 l -0.788926,2.1618 q -0.02412,0.0637 -0.06201,0.14297 -0.03617,0.0792 -0.09646,0.14814 -0.05857,0.0689 -0.148139,0.11541 -0.08785,0.0482 -0.215318,0.0482 -0.01723,0 -0.03962,-0.003 -0.02239,-0.002 -0.04479,-0.005 -0.02239,-0.003 -0.04306,-0.009 -0.01895,-0.003 -0.03101,-0.007 l -0.0017,-0.17053 q 0.02067,0.003 0.05512,0.007 0.03617,0.003 0.05168,0.003 0.08268,0 0.146416,-0.0224 0.06374,-0.0207 0.110243,-0.0637 0.04823,-0.0413 0.08441,-0.10508 0.03617,-0.0637 0.06546,-0.14641 l 0.08957,-0.24633 -0.702799,-1.84829 h 0.225654 z" />
    <path
       inkscape:connector-curvature="0"
       id="path969"
       style="font-style:normal;font-variant:normal;font-weight:300;font-stretch:normal;font-size:3.52777767px;line-height:1.25;font-family:Roboto;-inkscape-font-specification:'Roboto Light';letter-spacing:0px;word-spacing:0px;fill:#666666;fill-opacity:1;stroke:none;stroke-width:0.13872395"
       d="m 28.735104,294.37212 q 0,-0.0568 -0.02067,-0.11368 -0.01895,-0.0568 -0.07407,-0.1068 -0.0534,-0.0517 -0.151584,-0.0947 -0.09646,-0.0448 -0.251492,-0.0775 -0.155029,-0.0327 -0.27733,-0.0758 -0.120579,-0.0431 -0.204983,-0.10335 -0.08268,-0.062 -0.125746,-0.14642 -0.04306,-0.0844 -0.04306,-0.19809 0,-0.10335 0.04479,-0.19637 0.04651,-0.093 0.130914,-0.16192 0.08613,-0.0689 0.206705,-0.10852 0.122301,-0.0413 0.273886,-0.0413 0.161919,0 0.289388,0.0431 0.129191,0.0413 0.217041,0.11713 0.08957,0.0741 0.136081,0.1757 0.04651,0.10163 0.04651,0.22049 h -0.206706 q 0,-0.0724 -0.03273,-0.14125 -0.03101,-0.0689 -0.09302,-0.12058 -0.06029,-0.0534 -0.151584,-0.0861 -0.08957,-0.0327 -0.204983,-0.0327 -0.120579,0 -0.206706,0.0293 -0.08441,0.0293 -0.139527,0.0758 -0.0534,0.0465 -0.07924,0.10508 -0.02411,0.0568 -0.02411,0.11541 0,0.062 0.01895,0.11369 0.01895,0.05 0.07235,0.0947 0.05512,0.0431 0.151584,0.081 0.09819,0.0362 0.254937,0.0723 0.16881,0.0396 0.29111,0.0879 0.122301,0.0482 0.201539,0.11541 0.08096,0.0655 0.118855,0.15159 0.03962,0.0844 0.03962,0.19637 0,0.11541 -0.04823,0.21187 -0.04823,0.0947 -0.137804,0.16364 -0.08957,0.0672 -0.217041,0.10508 -0.127469,0.0379 -0.284221,0.0379 -0.177422,0 -0.313503,-0.0448 -0.136082,-0.0465 -0.229099,-0.12402 -0.09302,-0.0775 -0.141249,-0.17743 -0.04651,-0.10163 -0.04651,-0.21015 h 0.206706 q 0.0069,0.11025 0.05684,0.18432 0.04995,0.0723 0.124023,0.11713 0.07407,0.0431 0.163642,0.062 0.09129,0.019 0.179145,0.019 0.117134,0 0.206706,-0.0276 0.08957,-0.0276 0.149862,-0.0741 0.06201,-0.0465 0.09302,-0.1068 0.03101,-0.0603 0.03101,-0.12575 z" />
    <path
       inkscape:connector-curvature="0"
       id="path971"
       style="font-style:normal;font-variant:normal;font-weight:300;font-stretch:normal;font-size:3.52777767px;line-height:1.25;font-family:Roboto;-inkscape-font-specification:'Roboto Light';letter-spacing:0px;word-spacing:0px;fill:#666666;fill-opacity:1;stroke:none;stroke-width:0.13872395"
       d="m 30.452484,292.98203 0.0069,0.30317 q 0.04651,-0.0758 0.106798,-0.13781 0.06201,-0.0637 0.137804,-0.10679 0.07579,-0.0448 0.165365,-0.0689 0.08957,-0.0241 0.192925,-0.0241 0.204983,0 0.3514,0.0861 0.146416,0.0861 0.208428,0.2756 0.04479,-0.0775 0.106798,-0.14297 0.06373,-0.0672 0.142971,-0.11541 0.08096,-0.0482 0.177423,-0.0758 0.09646,-0.0276 0.208428,-0.0276 0.144694,0 0.258382,0.0396 0.113688,0.0379 0.191203,0.1223 0.07924,0.0827 0.120578,0.21187 0.04134,0.12919 0.04134,0.31006 v 1.2144 h -0.206705 v -1.21612 q 0,-0.14814 -0.03273,-0.24461 -0.03273,-0.0982 -0.09302,-0.15502 -0.06029,-0.0586 -0.144694,-0.081 -0.08268,-0.0224 -0.18259,-0.0224 -0.130914,0.002 -0.229099,0.0482 -0.09819,0.0448 -0.167087,0.11541 -0.06718,0.0689 -0.105076,0.15503 -0.0379,0.0861 -0.04479,0.16709 v 1.23335 H 31.45673 v -1.23163 q 0,-0.13952 -0.03273,-0.23254 -0.03273,-0.093 -0.09302,-0.14986 -0.06029,-0.0568 -0.144694,-0.081 -0.08268,-0.0241 -0.184312,-0.0241 -0.117134,0 -0.206706,0.0379 -0.08957,0.0362 -0.156752,0.0982 -0.06546,0.062 -0.10852,0.14125 -0.04306,0.0792 -0.0689,0.16364 v 1.27814 H 30.25439 v -1.8638 z" />
    <path
       inkscape:connector-curvature="0"
       id="path973"
       style="font-style:normal;font-variant:normal;font-weight:300;font-stretch:normal;font-size:3.52777767px;line-height:1.25;font-family:Roboto;-inkscape-font-specification:'Roboto Light';letter-spacing:0px;word-spacing:0px;fill:#666666;fill-opacity:1;stroke:none;stroke-width:0.13872395"
       d="m 34.569374,294.84583 q -0.01723,-0.0482 -0.02756,-0.11714 -0.0086,-0.0706 -0.01206,-0.14297 -0.04651,0.0603 -0.110243,0.11369 -0.06373,0.0534 -0.142972,0.093 -0.07924,0.0396 -0.173977,0.0637 -0.09474,0.0241 -0.204983,0.0241 -0.136081,0 -0.248047,-0.0396 -0.110243,-0.0396 -0.18948,-0.11025 -0.07752,-0.0723 -0.120579,-0.16881 -0.04306,-0.0965 -0.04306,-0.21015 0,-0.13608 0.05857,-0.2446 0.05857,-0.11024 0.16881,-0.18603 0.110243,-0.0775 0.266995,-0.11714 0.158474,-0.0413 0.354845,-0.0413 h 0.382405 v -0.21187 q 0,-0.19982 -0.124023,-0.3135 -0.122301,-0.11542 -0.35829,-0.11542 -0.10852,0 -0.199816,0.0293 -0.0913,0.0293 -0.158474,0.081 -0.06546,0.0517 -0.103353,0.12058 -0.03617,0.0672 -0.03617,0.14469 l -0.206706,-0.002 q 0,-0.10508 0.05168,-0.20326 0.05168,-0.0982 0.144694,-0.17398 0.09474,-0.0775 0.225654,-0.12402 0.132636,-0.0465 0.292833,-0.0465 0.148139,0 0.272163,0.0379 0.125746,0.0379 0.215318,0.11369 0.08957,0.0758 0.139527,0.18948 0.04995,0.11369 0.04995,0.26527 v 0.90262 q 0,0.0482 0.0034,0.0999 0.0034,0.0517 0.01034,0.0999 0.0086,0.0482 0.01895,0.093 0.01034,0.0431 0.02412,0.0758 v 0.0207 z m -0.647678,-0.14814 q 0.111965,0 0.206705,-0.0276 0.09646,-0.0293 0.173978,-0.0792 0.07751,-0.05 0.134358,-0.11541 0.05684,-0.0672 0.0913,-0.1447 v -0.40996 H 34.17491 q -0.158474,0 -0.28422,0.0293 -0.124024,0.0276 -0.210151,0.081 -0.08613,0.0534 -0.132636,0.13091 -0.04479,0.0758 -0.04479,0.17226 0,0.0758 0.02928,0.14297 0.02928,0.0655 0.08268,0.11541 0.05512,0.0482 0.132636,0.0775 0.07751,0.0276 0.173978,0.0276 z" />
    <path
       inkscape:connector-curvature="0"
       id="path975"
       style="font-style:normal;font-variant:normal;font-weight:300;font-stretch:normal;font-size:3.52777767px;line-height:1.25;font-family:Roboto;-inkscape-font-specification:'Roboto Light';letter-spacing:0px;word-spacing:0px;fill:#666666;fill-opacity:1;stroke:none;stroke-width:0.13872395"
       d="m 35.198103,293.8967 q 0,-0.21704 0.04995,-0.39102 0.04995,-0.1757 0.142971,-0.29972 0.09302,-0.12402 0.225654,-0.1912 0.134359,-0.0672 0.301446,-0.0672 0.198093,0 0.339342,0.0792 0.142971,0.0792 0.235989,0.21877 v -1.04559 h 0.204983 v 2.64584 h -0.192925 l -0.0086,-0.24805 q -0.09302,0.13263 -0.237712,0.20843 -0.142971,0.0741 -0.344509,0.0741 -0.165365,0 -0.298001,-0.0689 -0.132636,-0.0706 -0.225654,-0.19464 -0.09302,-0.12575 -0.142971,-0.29973 -0.04995,-0.17397 -0.04995,-0.38413 z m 0.208428,0.0362 q 0,0.16365 0.03273,0.3049 0.03273,0.13952 0.09991,0.24288 0.06718,0.10335 0.16881,0.16191 0.103353,0.0586 0.244602,0.0586 0.105075,0 0.18948,-0.0241 0.08613,-0.0258 0.151584,-0.0706 0.06718,-0.0448 0.115411,-0.1068 0.04995,-0.062 0.08441,-0.13436 v -0.87505 q -0.03101,-0.0706 -0.07579,-0.13608 -0.04479,-0.0655 -0.110243,-0.11541 -0.06546,-0.0517 -0.151585,-0.081 -0.08613,-0.031 -0.199815,-0.031 -0.142972,0 -0.246324,0.0603 -0.103353,0.0586 -0.170533,0.16192 -0.06718,0.10335 -0.09991,0.2446 -0.03273,0.14125 -0.03273,0.30317 z" />
    <path
       inkscape:connector-curvature="0"
       id="path977"
       style="font-style:normal;font-variant:normal;font-weight:300;font-stretch:normal;font-size:3.52777767px;line-height:1.25;font-family:Roboto;-inkscape-font-specification:'Roboto Light';letter-spacing:0px;word-spacing:0px;fill:#666666;fill-opacity:1;stroke:none;stroke-width:0.13872395"
       d="m 37.966238,294.88028 q -0.18259,0 -0.335897,-0.0672 -0.153307,-0.0689 -0.265272,-0.18948 -0.110243,-0.1223 -0.172255,-0.28939 -0.06201,-0.16709 -0.06201,-0.3669 v -0.0741 q 0,-0.21532 0.06373,-0.3893 0.06546,-0.1757 0.1757,-0.298 0.110243,-0.12402 0.253215,-0.1912 0.144694,-0.0672 0.304891,-0.0672 0.177422,0 0.315226,0.0637 0.137804,0.0637 0.230821,0.17742 0.09474,0.11369 0.142972,0.27044 0.04823,0.15676 0.04823,0.34279 v 0.12575 h -1.329807 v 0.0396 q 0,0.1533 0.04651,0.28938 0.04651,0.13436 0.130914,0.23427 0.08441,0.0999 0.201538,0.15847 0.117133,0.0568 0.260105,0.0568 0.165364,0 0.29111,-0.0603 0.127469,-0.0603 0.230821,-0.19293 l 0.129192,0.0982 q -0.04651,0.0672 -0.108521,0.12747 -0.06029,0.0603 -0.141249,0.10507 -0.08096,0.0448 -0.18259,0.0706 -0.10163,0.0258 -0.227376,0.0258 z m -0.0379,-1.757 q -0.117134,0 -0.217041,0.0448 -0.09991,0.0448 -0.177423,0.12747 -0.07579,0.0827 -0.125746,0.19982 -0.04823,0.11541 -0.06546,0.25666 h 1.117933 v -0.0224 q -0.0034,-0.11713 -0.0379,-0.22565 -0.03445,-0.11024 -0.10163,-0.19465 -0.06546,-0.0844 -0.163642,-0.13436 -0.09819,-0.0517 -0.229099,-0.0517 z" />
    <path
       inkscape:connector-curvature="0"
       id="path979"
       style="font-style:normal;font-variant:normal;font-weight:300;font-stretch:normal;font-size:3.52777767px;line-height:1.25;font-family:Roboto;-inkscape-font-specification:'Roboto Light';letter-spacing:0px;word-spacing:0px;fill:#666666;fill-opacity:1;stroke:none;stroke-width:0.13872395"
       d="m 40.119422,292.98203 0.0069,0.30317 q 0.04651,-0.0758 0.106798,-0.13781 0.06201,-0.0637 0.137804,-0.10679 0.07579,-0.0448 0.165364,-0.0689 0.08957,-0.0241 0.192926,-0.0241 0.204983,0 0.351399,0.0861 0.146417,0.0861 0.208429,0.2756 0.04479,-0.0775 0.106798,-0.14297 0.06373,-0.0672 0.142971,-0.11541 0.08096,-0.0482 0.177423,-0.0758 0.09646,-0.0276 0.208428,-0.0276 0.144694,0 0.258382,0.0396 0.113688,0.0379 0.191203,0.1223 0.07924,0.0827 0.120578,0.21187 0.04134,0.12919 0.04134,0.31006 v 1.2144 H 42.32946 v -1.21612 q 0,-0.14814 -0.03273,-0.24461 -0.03273,-0.0982 -0.09302,-0.15502 -0.06029,-0.0586 -0.144694,-0.081 -0.08268,-0.0224 -0.182591,-0.0224 -0.130913,0.002 -0.229098,0.0482 -0.09819,0.0448 -0.167087,0.11541 -0.06718,0.0689 -0.105076,0.15503 -0.0379,0.0861 -0.04479,0.16709 v 1.23335 h -0.206706 v -1.23163 q 0,-0.13952 -0.03273,-0.23254 -0.03273,-0.093 -0.09302,-0.14986 -0.06029,-0.0568 -0.144694,-0.081 -0.08268,-0.0241 -0.184312,-0.0241 -0.117134,0 -0.206706,0.0379 -0.08957,0.0362 -0.156752,0.0982 -0.06546,0.062 -0.108521,0.14125 -0.04306,0.0792 -0.0689,0.16364 v 1.27814 h -0.206706 v -1.8638 z" />
    <path
       inkscape:connector-curvature="0"
       id="path981"
       style="font-style:normal;font-variant:normal;font-weight:300;font-stretch:normal;font-size:3.52777767px;line-height:1.25;font-family:Roboto;-inkscape-font-specification:'Roboto Light';letter-spacing:0px;word-spacing:0px;fill:#666666;fill-opacity:1;stroke:none;stroke-width:0.13872395"
       d="m 42.946123,293.88637 q 0,-0.20326 0.05857,-0.37552 0.06029,-0.17225 0.168809,-0.29628 0.108521,-0.12574 0.261828,-0.19637 0.153306,-0.0706 0.341064,-0.0706 0.191203,0 0.34451,0.0706 0.155029,0.0706 0.263549,0.19637 0.108521,0.12403 0.167088,0.29628 0.05857,0.17226 0.05857,0.37552 v 0.0568 q 0,0.20326 -0.05857,0.37552 -0.05857,0.17225 -0.167088,0.298 -0.10852,0.12402 -0.261827,0.19464 -0.153307,0.0689 -0.342787,0.0689 -0.18948,0 -0.342787,-0.0689 -0.153307,-0.0706 -0.26355,-0.19464 -0.10852,-0.12575 -0.168809,-0.298 -0.05857,-0.17226 -0.05857,-0.37552 z m 0.206706,0.0568 q 0,0.15331 0.04134,0.29283 0.04134,0.13781 0.120578,0.24288 0.07924,0.10336 0.196371,0.16537 0.117133,0.062 0.268717,0.062 0.151584,0 0.266995,-0.062 0.117133,-0.062 0.196371,-0.16537 0.07924,-0.10507 0.120578,-0.24288 0.04134,-0.13952 0.04134,-0.29283 v -0.0568 q 0,-0.14987 -0.04134,-0.28767 -0.04134,-0.13953 -0.120578,-0.2446 -0.07924,-0.10508 -0.198093,-0.16709 -0.117134,-0.0637 -0.268718,-0.0637 -0.149862,0 -0.266995,0.0637 -0.11541,0.062 -0.194648,0.16709 -0.07924,0.10507 -0.120578,0.2446 -0.04134,0.1378 -0.04134,0.28767 z" />
    <path
       inkscape:connector-curvature="0"
       id="path983"
       style="font-style:normal;font-variant:normal;font-weight:300;font-stretch:normal;font-size:3.52777767px;line-height:1.25;font-family:Roboto;-inkscape-font-specification:'Roboto Light';letter-spacing:0px;word-spacing:0px;fill:#666666;fill-opacity:1;stroke:none;stroke-width:0.13872395"
       d="m 46.537634,293.93287 q 0,0.21016 -0.04823,0.38413 -0.04651,0.17398 -0.137804,0.29973 -0.0913,0.12402 -0.223931,0.19464 -0.132636,0.0689 -0.301446,0.0689 -0.204983,0 -0.3514,-0.0775 -0.144694,-0.0775 -0.237711,-0.21187 l -0.0086,0.25494 H 45.035586 V 292.2 h 0.204984 v 1.05248 q 0.09302,-0.1447 0.235989,-0.22393 0.142971,-0.081 0.346232,-0.081 0.170532,0 0.303168,0.0672 0.132636,0.0672 0.223931,0.1912 0.09302,0.12402 0.139527,0.29972 0.04823,0.17398 0.04823,0.39102 z m -0.206706,-0.0362 q 0,-0.16192 -0.03101,-0.30317 -0.03101,-0.14125 -0.09819,-0.2446 -0.06546,-0.10335 -0.168809,-0.16192 -0.103353,-0.0603 -0.248047,-0.0603 -0.117134,0 -0.206706,0.0327 -0.08957,0.031 -0.155029,0.0844 -0.06546,0.0534 -0.110243,0.1223 -0.04479,0.0689 -0.07235,0.14297 v 0.8406 q 0.03273,0.0741 0.08096,0.13953 0.04995,0.0637 0.117134,0.11196 0.06718,0.0465 0.153306,0.0741 0.08785,0.0258 0.196371,0.0258 0.139526,0 0.241156,-0.0586 0.103353,-0.0586 0.170533,-0.16191 0.06718,-0.10336 0.09819,-0.24288 0.03273,-0.14125 0.03273,-0.3049 z" />
    <path
       inkscape:connector-curvature="0"
       id="path985"
       style="font-style:normal;font-variant:normal;font-weight:300;font-stretch:normal;font-size:3.52777767px;line-height:1.25;font-family:Roboto;-inkscape-font-specification:'Roboto Light';letter-spacing:0px;word-spacing:0px;fill:#666666;fill-opacity:1;stroke:none;stroke-width:0.13872395"
       d="m 47.22493,294.84583 h -0.206706 v -1.8638 h 0.206706 z m -0.242879,-2.40296 q 0,-0.0586 0.0379,-0.0982 0.0379,-0.0414 0.103353,-0.0414 0.06546,0 0.103353,0.0414 0.03962,0.0396 0.03962,0.0982 0,0.0586 -0.03962,0.0982 -0.0379,0.0396 -0.103353,0.0396 -0.06546,0 -0.103353,-0.0396 -0.0379,-0.0396 -0.0379,-0.0982 z" />
    <path
       inkscape:connector-curvature="0"
       id="path987"
       style="font-style:normal;font-variant:normal;font-weight:300;font-stretch:normal;font-size:3.52777767px;line-height:1.25;font-family:Roboto;-inkscape-font-specification:'Roboto Light';letter-spacing:0px;word-spacing:0px;fill:#666666;fill-opacity:1;stroke:none;stroke-width:0.13872395"
       d="m 48.017304,294.84583 h -0.206706 v -2.64584 h 0.206706 z" />
    <path
       inkscape:connector-curvature="0"
       id="path989"
       style="font-style:normal;font-variant:normal;font-weight:300;font-stretch:normal;font-size:3.52777767px;line-height:1.25;font-family:Roboto;-inkscape-font-specification:'Roboto Light';letter-spacing:0px;word-spacing:0px;fill:#666666;fill-opacity:1;stroke:none;stroke-width:0.13872395"
       d="m 49.300602,294.88028 q -0.18259,0 -0.335897,-0.0672 -0.153307,-0.0689 -0.265272,-0.18948 -0.110243,-0.1223 -0.172255,-0.28939 -0.06201,-0.16709 -0.06201,-0.3669 v -0.0741 q 0,-0.21532 0.06373,-0.3893 0.06546,-0.1757 0.1757,-0.298 0.110243,-0.12402 0.253215,-0.1912 0.144694,-0.0672 0.304891,-0.0672 0.177422,0 0.315226,0.0637 0.137804,0.0637 0.230821,0.17742 0.09474,0.11369 0.142972,0.27044 0.04823,0.15676 0.04823,0.34279 v 0.12575 h -1.329807 v 0.0396 q 0,0.1533 0.04651,0.28938 0.04651,0.13436 0.130914,0.23427 0.08441,0.0999 0.201538,0.15847 0.117133,0.0568 0.260104,0.0568 0.165365,0 0.291111,-0.0603 0.127469,-0.0603 0.230821,-0.19293 l 0.129191,0.0982 q -0.04651,0.0672 -0.10852,0.12747 -0.06029,0.0603 -0.141249,0.10507 -0.08096,0.0448 -0.18259,0.0706 -0.10163,0.0258 -0.227376,0.0258 z m -0.0379,-1.757 q -0.117134,0 -0.217041,0.0448 -0.09991,0.0448 -0.177423,0.12747 -0.07579,0.0827 -0.125746,0.19982 -0.04823,0.11541 -0.06546,0.25666 h 1.117934 v -0.0224 q -0.0034,-0.11713 -0.0379,-0.22565 -0.03445,-0.11024 -0.10163,-0.19465 -0.06546,-0.0844 -0.163642,-0.13436 -0.09819,-0.0517 -0.229099,-0.0517 z" />
  </g>
</svg>
